<?xml version="1.0" standalone="no"?>
<!DOCTYPE svg PUBLIC "-//W3C//DTD SVG 20010904//EN"
 "http://www.w3.org/TR/2001/REC-SVG-20010904/DTD/svg10.dtd">
<svg version="1.0" xmlns="http://www.w3.org/2000/svg"
 width="752.000000pt" height="752.000000pt" viewBox="0 0 752.000000 752.000000"
 preserveAspectRatio="xMidYMid meet">
<metadata>
Created by potrace 1.14, written by Peter Selinger 2001-2017
</metadata>
<g transform="translate(0.000000,752.000000) scale(0.100000,-0.100000)"
fill="#000000" stroke="none">
<path d="M3688 7375 c-2 -2 -28 -6 -58 -9 -54 -7 -120 -21 -150 -33 -8 -3 -22
-7 -31 -9 -38 -8 -199 -97 -259 -144 -140 -109 -168 -128 -248 -168 -45 -23
-84 -42 -87 -42 -3 0 -6 0 -7 -1 -2 0 -10 -2 -18 -4 -8 -2 -33 -9 -55 -15 -69
-18 -78 -20 -145 -26 -89 -8 -104 -8 -190 1 -135 14 -299 10 -375 -9 -111 -28
-252 -85 -266 -108 -3 -5 -9 -9 -13 -9 -7 1 -53 -27 -73 -44 -6 -5 -26 -21
-44 -35 -117 -90 -229 -254 -284 -415 -15 -44 -30 -87 -33 -95 -3 -8 -6 -17
-7 -20 -10 -40 -113 -218 -148 -256 -113 -120 -216 -202 -309 -244 -63 -28
-167 -87 -184 -105 -9 -8 -19 -15 -23 -15 -4 0 -42 -34 -85 -76 -136 -134
-222 -293 -267 -489 -12 -53 -20 -253 -11 -269 3 -6 7 -25 8 -43 2 -27 8 -56
29 -143 1 -3 5 -16 8 -30 16 -58 19 -91 22 -200 4 -101 0 -138 -19 -225 -14
-66 -18 -82 -25 -100 -14 -37 -105 -218 -116 -229 -16 -16 -85 -172 -92 -206
-3 -17 -10 -33 -14 -36 -5 -3 -7 -9 -4 -14 3 -5 1 -29 -6 -52 -15 -54 -19
-244 -7 -306 5 -26 11 -56 12 -67 2 -11 6 -27 9 -35 3 -8 11 -33 17 -55 39
-131 138 -287 245 -384 171 -157 278 -321 320 -492 9 -35 18 -73 21 -84 3 -11
7 -63 9 -115 9 -223 34 -331 113 -485 13 -27 31 -57 38 -66 8 -8 14 -20 14
-26 0 -6 3 -13 8 -15 4 -2 18 -16 30 -33 24 -30 101 -111 124 -130 45 -37 126
-95 132 -95 3 0 25 -12 47 -26 23 -14 48 -27 58 -30 9 -2 45 -13 81 -25 107
-36 95 -33 166 -44 75 -11 96 -16 158 -37 203 -69 356 -188 493 -383 141 -199
297 -319 503 -385 202 -65 454 -53 645 29 105 46 177 70 225 77 8 1 33 6 55
10 72 13 246 8 325 -9 75 -17 114 -30 178 -58 128 -57 307 -97 417 -93 71 2
176 15 200 24 11 4 22 8 25 8 25 0 110 31 178 64 141 69 260 171 354 303 27
39 59 84 71 100 33 45 168 174 189 181 10 3 18 9 18 12 0 4 17 16 38 27 20 10
44 24 52 31 35 27 214 88 290 98 72 10 107 18 198 48 50 17 92 35 92 39 0 4
13 10 29 14 16 3 35 13 42 21 6 8 18 14 25 14 8 0 14 4 14 8 0 5 10 13 23 19
72 33 254 242 293 337 10 25 22 46 27 46 4 0 7 6 7 14 0 8 5 27 12 43 6 15 12
30 13 33 32 106 41 165 50 335 2 55 6 109 9 120 22 99 32 131 63 205 62 144
125 228 264 356 138 126 240 299 280 472 6 26 13 56 16 67 9 37 10 224 2 282
-10 69 -48 204 -60 218 -5 5 -9 15 -9 22 0 6 -28 60 -62 120 -62 108 -114 220
-122 264 -3 13 -5 24 -6 24 -2 0 -10 33 -17 75 -9 52 -9 269 0 320 5 25 17 77
28 115 26 97 31 135 31 250 1 115 -6 164 -32 255 -11 36 -19 68 -19 73 -1 16
-65 135 -108 199 -50 76 -141 171 -217 227 -53 39 -69 48 -176 102 -113 56
-207 124 -279 203 -20 22 -44 48 -53 58 -10 10 -18 23 -18 28 0 6 -3 10 -7 10
-5 0 -16 15 -27 33 -60 103 -80 147 -117 254 -63 183 -118 274 -238 394 -42
41 -98 91 -126 111 -44 31 -192 107 -220 112 -5 2 -34 10 -63 19 -102 31 -247
40 -402 23 -115 -13 -186 -10 -290 10 -14 2 -34 6 -45 8 -35 7 -148 48 -190
69 -48 24 -164 98 -185 118 -8 8 -35 30 -60 49 -25 19 -47 37 -50 40 -3 3 -27
17 -55 30 -27 14 -57 30 -65 36 -8 6 -24 14 -35 17 -11 3 -45 14 -75 25 -30
11 -71 23 -90 26 -19 3 -48 8 -63 11 -30 6 -204 14 -209 10z"/>
</g>
</svg>
